{"asset":{"version":"2.0","generator":"Blockbench 4.11.2 glTF exporter"},"scenes":[{"nodes":[6],"name":"blockbench_export"}],"scene":0,"nodes":[{"name":"cuboid -col","mesh":0},{"translation":[0,0,1],"name":"Last","children":[0]},{"name":"cuboid-col","mesh":1},{"translation":[0,0,1],"name":"Second","children":[1,2]},{"name":"cuboid-col","mesh":2},{"translation":[0,1.25,-1.5],"name":"First","children":[3,4]},{"children":[5]}],"bufferViews":[{"buffer":0,"byteOffset":0,"byteLength":288,"target":34962,"byteStride":12},{"buffer":0,"byteOffset":288,"byteLength":288,"target":34962,"byteStride":12},{"buffer":0,"byteOffset":576,"byteLength":192,"target":34962,"byteStride":8},{"buffer":0,"byteOffset":768,"byteLength":72,"target":34963},{"buffer":0,"byteOffset":840,"byteLength":288,"target":34962,"byteStride":12},{"buffer":0,"byteOffset":1128,"byteLength":288,"target":34962,"byteStride":12},{"buffer":0,"byteOffset":1416,"byteLength":192,"target":34962,"byteStride":8},{"buffer":0,"byteOffset":1608,"byteLength":72,"target":34963},{"buffer":0,"byteOffset":1680,"byteLength":288,"target":34962,"byteStride":12},{"buffer":0,"byteOffset":1968,"byteLength":288,"target":34962,"byteStride":12},{"buffer":0,"byteOffset":2256,"byteLength":192,"target":34962,"byteStride":8},{"buffer":0,"byteOffset":2448,"byteLength":72,"target":34963},{"buffer":0,"byteOffset":2520,"byteLength":8},{"buffer":0,"byteOffset":2528,"byteLength":32},{"buffer":0,"byteOffset":2560,"byteLength":8},{"buffer":0,"byteOffset":2568,"byteLength":32},{"buffer":0,"byteOffset":2600,"byteLength":8},{"buffer":0,"byteOffset":2608,"byteLength":32},{"buffer":0,"byteOffset":2640,"byteLength":8},{"buffer":0,"byteOffset":2648,"byteLength":32},{"buffer":0,"byteOffset":2680,"byteLength":8},{"buffer":0,"byteOffset":2688,"byteLength":32},{"buffer":0,"byteOffset":2720,"byteLength":8},{"buffer":0,"byteOffset":2728,"byteLength":32}],"buffers":[{"byteLength":2760,"uri":"data:application/octet-stream;base64,"}],"accessors":[{"bufferView":0,"componentType":5126,"count":24,"max":[0.03125,1.75,1],"min":[-0.03125,-1.25,0],"type":"VEC3"},{"bufferView":1,"componentType":5126,"count":24,"max":[1,1,1],"min":[-1,-1,-1],"type":"VEC3"},{"bufferView":2,"componentType":5126,"count":24,"max":[0.609375,0.75],"min":[0,0],"type":"VEC2"},{"bufferView":3,"componentType":5123,"count":36,"max":[23],"min":[0],"type":"SCALAR"},{"bufferView":4,"componentType":5126,"count":24,"max":[0.03125,1.75,1],"min":[-0.03125,-1.25,0],"type":"VEC3"},{"bufferView":5,"componentType":5126,"count":24,"max":[1,1,1],"min":[-1,-1,-1],"type":"VEC3"},{"bufferView":6,"componentType":5126,"count":24,"max":[0.609375,0.75],"min":[0,0],"type":"VEC2"},{"bufferView":7,"componentType":5123,"count":36,"max":[23],"min":[0],"type":"SCALAR"},{"bufferView":8,"componentType":5126,"count":24,"max":[0.03125,1.75,1],"min":[-0.03125,-1.25,0],"type":"VEC3"},{"bufferView":9,"componentType":5126,"count":24,"max":[1,1,1],"min":[-1,-1,-1],"type":"VEC3"},{"bufferView":10,"componentType":5126,"count":24,"max":[0.609375,0.75],"min":[0,0],"type":"VEC2"},{"bufferView":11,"componentType":5123,"count":36,"max":[23],"min":[0],"type":"SCALAR"},{"bufferView":12,"componentType":5126,"count":2,"max":[0.7083333134651184],"min":[0.2916666567325592],"type":"SCALAR"},{"bufferView":13,"componentType":5126,"count":2,"max":[0,0,0,1],"min":[0,-0.9600498676300049,0,0.2798290252685547],"type":"VEC4"},{"bufferView":14,"componentType":5126,"count":2,"max":[0.5],"min":[0],"type":"SCALAR"},{"bufferView":15,"componentType":5126,"count":2,"max":[0,0.9659258127212524,0,1],"min":[0,0,0,0.258819043636322],"type":"VEC4"},{"bufferView":16,"componentType":5126,"count":2,"max":[0.8333333134651184],"min":[0.4166666567325592],"type":"SCALAR"},{"bufferView":17,"componentType":5126,"count":2,"max":[0,0.6427876353263855,0,1],"min":[0,0,0,0.7660444378852844],"type":"VEC4"},{"bufferView":18,"componentType":5126,"count":2,"max":[0.5833333134651184],"min":[0.1666666716337204],"type":"SCALAR"},{"bufferView":19,"componentType":5126,"count":2,"max":[0,0,0,1],"min":[0,-0.9600498676300049,0,0.2798290252685547],"type":"VEC4"},{"bufferView":20,"componentType":5126,"count":2,"max":[0.7083333134651184],"min":[0.2083333283662796],"type":"SCALAR"},{"bufferView":21,"componentType":5126,"count":2,"max":[0,0.9659258127212524,0,1],"min":[0,0,0,0.258819043636322],"type":"VEC4"},{"bufferView":22,"componentType":5126,"count":2,"max":[0.4166666567325592],"min":[0],"type":"SCALAR"},{"bufferView":23,"componentType":5126,"count":2,"max":[0,0.6427876353263855,0,1],"min":[0,0,0,0.7660444378852844],"type":"VEC4"}],"materials":[{"pbrMetallicRoughness":{"metallicFactor":0,"roughnessFactor":1,"baseColorTexture":{"index":0}},"alphaMode":"MASK","alphaCutoff":0.05,"doubleSided":true}],"textures":[{"sampler":0,"source":0,"name":"Blinds.png"}],"samplers":[{"magFilter":9728,"minFilter":9728,"wrapS":33071,"wrapT":33071}],"images":[{"mimeType":"image/png","uri":"data:image/png;base64,"}],"meshes":[{"primitives":[{"mode":4,"attributes":{"POSITION":0,"NORMAL":1,"TEXCOORD_0":2},"indices":3,"material":0}]},{"primitives":[{"mode":4,"attributes":{"POSITION":4,"NORMAL":5,"TEXCOORD_0":6},"indices":7,"material":0}]},{"primitives":[{"mode":4,"attributes":{"POSITION":8,"NORMAL":9,"TEXCOORD_0":10},"indices":11,"material":0}]}],"animations":[{"name":"Open","samplers":[{"input":12,"output":13,"interpolation":"LINEAR"},{"input":14,"output":15,"interpolation":"LINEAR"},{"input":16,"output":17,"interpolation":"LINEAR"}],"channels":[{"sampler":0,"target":{"node":3,"path":"rotation"}},{"sampler":1,"target":{"node":1,"path":"rotation"}},{"sampler":2,"target":{"node":5,"path":"rotation"}}]},{"name":"Close","samplers":[{"input":18,"output":19,"interpolation":"LINEAR"},{"input":20,"output":21,"interpolation":"LINEAR"},{"input":22,"output":23,"interpolation":"LINEAR"}],"channels":[{"sampler":0,"target":{"node":3,"path":"rotation"}},{"sampler":1,"target":{"node":1,"path":"rotation"}},{"sampler":2,"target":{"node":5,"path":"rotation"}}]}]}