{"asset":{"version":"2.0","generator":"Blockbench 4.11.2 glTF exporter"},"scenes":[{"nodes":[8],"name":"blockbench_export"}],"scene":0,"nodes":[{"rotation":[0,-1,0,6.123233995736766e-17],"translation":[-0.25,0.25,-0.4375],"name":"Wall-col","mesh":0},{"rotation":[0,-1,0,6.123233995736766e-17],"translation":[1.25,0.25,-0.4375],"name":"Wall-col","mesh":1},{"rotation":[0,-1,0,6.123233995736766e-17],"translation":[1.25,1.25,-0.4375],"name":"Wall-col","mesh":2},{"rotation":[0,-1,0,6.123233995736766e-17],"translation":[-0.25,1.25,-0.4375],"name":"Wall-col","mesh":3},{"translation":[0.5,0.03125,-0.4375],"name":"Door Frame -col","mesh":4},{"rotation":[0.7071067811865475,0,0,0.7071067811865476],"translation":[-0.9749999999999999,0,0.14687499999999992],"name":"Handle","mesh":5},{"translation":[-0.5249999999999999,-0.96875,0.9781249999999999],"name":"Door In -col","mesh":6},{"translation":[1.025,1,-0.4156249999999999],"name":"Ani_Door","children":[5,6]},{"children":[0,1,2,3,4,7]}],"bufferViews":[{"buffer":0,"byteOffset":0,"byteLength":288,"target":34962,"byteStride":12},{"buffer":0,"byteOffset":288,"byteLength":288,"target":34962,"byteStride":12},{"buffer":0,"byteOffset":576,"byteLength":192,"target":34962,"byteStride":8},{"buffer":0,"byteOffset":768,"byteLength":72,"target":34963},{"buffer":0,"byteOffset":840,"byteLength":288,"target":34962,"byteStride":12},{"buffer":0,"byteOffset":1128,"byteLength":288,"target":34962,"byteStride":12},{"buffer":0,"byteOffset":1416,"byteLength":192,"target":34962,"byteStride":8},{"buffer":0,"byteOffset":1608,"byteLength":72,"target":34963},{"buffer":0,"byteOffset":1680,"byteLength":288,"target":34962,"byteStride":12},{"buffer":0,"byteOffset":1968,"byteLength":288,"target":34962,"byteStride":12},{"buffer":0,"byteOffset":2256,"byteLength":192,"target":34962,"byteStride":8},{"buffer":0,"byteOffset":2448,"byteLength":72,"target":34963},{"buffer":0,"byteOffset":2520,"byteLength":288,"target":34962,"byteStride":12},{"buffer":0,"byteOffset":2808,"byteLength":288,"target":34962,"byteStride":12},{"buffer":0,"byteOffset":3096,"byteLength":192,"target":34962,"byteStride":8},{"buffer":0,"byteOffset":3288,"byteLength":72,"target":34963},{"buffer":0,"byteOffset":3360,"byteLength":960,"target":34962,"byteStride":12},{"buffer":0,"byteOffset":4320,"byteLength":960,"target":34962,"byteStride":12},{"buffer":0,"byteOffset":5280,"byteLength":640,"target":34962,"byteStride":8},{"buffer":0,"byteOffset":5920,"byteLength":240,"target":34963},{"buffer":0,"byteOffset":6160,"byteLength":1344,"target":34962,"byteStride":12},{"buffer":0,"byteOffset":7504,"byteLength":1344,"target":34962,"byteStride":12},{"buffer":0,"byteOffset":8848,"byteLength":896,"target":34962,"byteStride":8},{"buffer":0,"byteOffset":9744,"byteLength":288,"target":34963},{"buffer":0,"byteOffset":10032,"byteLength":288,"target":34962,"byteStride":12},{"buffer":0,"byteOffset":10320,"byteLength":288,"target":34962,"byteStride":12},{"buffer":0,"byteOffset":10608,"byteLength":192,"target":34962,"byteStride":8},{"buffer":0,"byteOffset":10800,"byteLength":72,"target":34963},{"buffer":0,"byteOffset":10872,"byteLength":12},{"buffer":0,"byteOffset":10884,"byteLength":48},{"buffer":0,"byteOffset":10932,"byteLength":12},{"buffer":0,"byteOffset":10944,"byteLength":48}],"buffers":[{"byteLength":10992,"uri":"data:application/octet-stream;base64,"}],"accessors":[{"bufferView":0,"componentType":5126,"count":24,"max":[0.25,0.75,0.0625],"min":[-0.21250000596046448,-0.25,-0.0625],"type":"VEC3"},{"bufferView":1,"componentType":5126,"count":24,"max":[1,1,1],"min":[-1,-1,-1],"type":"VEC3"},{"bufferView":2,"componentType":5126,"count":24,"max":[0.5625,0.515625],"min":[0,0],"type":"VEC2"},{"bufferView":3,"componentType":5123,"count":36,"max":[23],"min":[0],"type":"SCALAR"},{"bufferView":4,"componentType":5126,"count":24,"max":[0.21250000596046448,0.75,0.0625],"min":[-0.25,-0.25,-0.0625],"type":"VEC3"},{"bufferView":5,"componentType":5126,"count":24,"max":[1,1,1],"min":[-1,-1,-1],"type":"VEC3"},{"bufferView":6,"componentType":5126,"count":24,"max":[0.5625,0.515625],"min":[0,0],"type":"VEC2"},{"bufferView":7,"componentType":5123,"count":36,"max":[23],"min":[0],"type":"SCALAR"},{"bufferView":8,"componentType":5126,"count":24,"max":[0.21250000596046448,0.75,0.0625],"min":[-0.25,-0.25,-0.0625],"type":"VEC3"},{"bufferView":9,"componentType":5126,"count":24,"max":[1,1,1],"min":[-1,-1,-1],"type":"VEC3"},{"bufferView":10,"componentType":5126,"count":24,"max":[0.5625,0.515625],"min":[0,0],"type":"VEC2"},{"bufferView":11,"componentType":5123,"count":36,"max":[23],"min":[0],"type":"SCALAR"},{"bufferView":12,"componentType":5126,"count":24,"max":[0.25,0.75,0.0625],"min":[-0.21250000596046448,-0.25,-0.0625],"type":"VEC3"},{"bufferView":13,"componentType":5126,"count":24,"max":[1,1,1],"min":[-1,-1,-1],"type":"VEC3"},{"bufferView":14,"componentType":5126,"count":24,"max":[0.5625,0.515625],"min":[0,0],"type":"VEC2"},{"bufferView":15,"componentType":5123,"count":36,"max":[23],"min":[0],"type":"SCALAR"},{"bufferView":16,"componentType":5126,"count":80,"max":[0.5625,1.96875,0.125],"min":[-0.5625,-0.03125,-0.125],"type":"VEC3"},{"bufferView":17,"componentType":5126,"count":80,"max":[1,1,1],"min":[-1,-1,-1],"type":"VEC3"},{"bufferView":18,"componentType":5126,"count":80,"max":[0.484375,0.5703125],"min":[0,0],"type":"VEC2"},{"bufferView":19,"componentType":5123,"count":120,"max":[79],"min":[0],"type":"SCALAR"},{"bufferView":20,"componentType":5126,"count":112,"max":[0.0625,0.0625,0.0625],"min":[-0.0625,-0.0625,-0.0625],"type":"VEC3"},{"bufferView":21,"componentType":5126,"count":112,"max":[0.9238795042037964,0.9238795042037964,0.9238795042037964],"min":[-0.9238795042037964,-0.9238795042037964,-0.9238795042037964],"type":"VEC3"},{"bufferView":22,"componentType":5126,"count":112,"max":[0.5,0.5625],"min":[0.005362499970942736,0],"type":"VEC2"},{"bufferView":23,"componentType":5123,"count":144,"max":[111],"min":[0],"type":"SCALAR"},{"bufferView":24,"componentType":5126,"count":24,"max":[0.53125,1.90625,-0.887499988079071],"min":[-0.53125,-0.03125,-1.1124999523162842],"type":"VEC3"},{"bufferView":25,"componentType":5126,"count":24,"max":[1,1,1],"min":[-1,-1,-1],"type":"VEC3"},{"bufferView":26,"componentType":5126,"count":24,"max":[0.2734375,0.4921875],"min":[0,0],"type":"VEC2"},{"bufferView":27,"componentType":5123,"count":36,"max":[23],"min":[0],"type":"SCALAR"},{"bufferView":28,"componentType":5126,"count":3,"max":[0.9166666865348816],"min":[0],"type":"SCALAR"},{"bufferView":29,"componentType":5126,"count":3,"max":[0,0,0,1],"min":[0,-0.7667731642723083,0,0.6419181227684021],"type":"VEC4"},{"bufferView":30,"componentType":5126,"count":3,"max":[0.9166666865348816],"min":[0],"type":"SCALAR"},{"bufferView":31,"componentType":5126,"count":3,"max":[0,0,0,1],"min":[0,-0.7667731642723083,0,0.6419181227684021],"type":"VEC4"}],"materials":[{"pbrMetallicRoughness":{"metallicFactor":0,"roughnessFactor":1,"baseColorTexture":{"index":0}},"alphaMode":"MASK","alphaCutoff":0.05,"doubleSided":true},{"pbrMetallicRoughness":{"metallicFactor":0,"roughnessFactor":1,"baseColorTexture":{"index":1}},"alphaMode":"MASK","alphaCutoff":0.05,"doubleSided":true},{"pbrMetallicRoughness":{"metallicFactor":0,"roughnessFactor":1,"baseColorTexture":{"index":2}},"alphaMode":"MASK","alphaCutoff":0.05,"doubleSided":true}],"textures":[{"sampler":0,"source":0,"name":"Wall Texture.png"},{"sampler":1,"source":1,"name":"Door.png"},{"sampler":2,"source":2,"name":"Door Handle.png"}],"samplers":[{"magFilter":9728,"minFilter":9728,"wrapS":33071,"wrapT":33071},{"magFilter":9728,"minFilter":9728,"wrapS":33071,"wrapT":33071},{"magFilter":9728,"minFilter":9728,"wrapS":33071,"wrapT":33071}],"images":[{"mimeType":"image/png","uri":"data:image/png;base64,"},{"mimeType":"image/png","uri":"data:image/png;base64,"},{"mimeType":"image/png","uri":"data:image/png;base64,"}],"meshes":[{"primitives":[{"mode":4,"attributes":{"POSITION":0,"NORMAL":1,"TEXCOORD_0":2},"indices":3,"material":0}]},{"primitives":[{"mode":4,"attributes":{"POSITION":4,"NORMAL":5,"TEXCOORD_0":6},"indices":7,"material":0}]},{"primitives":[{"mode":4,"attributes":{"POSITION":8,"NORMAL":9,"TEXCOORD_0":10},"indices":11,"material":0}]},{"primitives":[{"mode":4,"attributes":{"POSITION":12,"NORMAL":13,"TEXCOORD_0":14},"indices":15,"material":0}]},{"primitives":[{"mode":4,"attributes":{"POSITION":16,"NORMAL":17,"TEXCOORD_0":18},"indices":19,"material":1}]},{"primitives":[{"mode":4,"attributes":{"POSITION":20,"NORMAL":21,"TEXCOORD_0":22},"indices":23,"material":2}]},{"primitives":[{"mode":4,"attributes":{"POSITION":24,"NORMAL":25,"TEXCOORD_0":26},"indices":27,"material":1}]}],"animations":[{"name":"Door_Open","samplers":[{"input":28,"output":29,"interpolation":"LINEAR"}],"channels":[{"sampler":0,"target":{"node":7,"path":"rotation"}}]},{"name":"Door_Close","samplers":[{"input":30,"output":31,"interpolation":"LINEAR"}],"channels":[{"sampler":0,"target":{"node":7,"path":"rotation"}}]}]}