{"asset":{"version":"2.0","generator":"Blockbench 4.11.2 glTF exporter"},"scenes":[{"nodes":[5],"name":"blockbench_export"}],"scene":0,"nodes":[{"rotation":[0,-0.7071067811865475,0,0.7071067811865476],"name":"cuboid","mesh":0},{"rotation":[0,-0.7071067811865475,0,0.7071067811865476],"name":"cuboid","mesh":1},{"translation":[0,0.00625,0],"name":"UpperDrawer","children":[1]},{"rotation":[0,-0.7071067811865475,0,0.7071067811865476],"name":"cuboid","mesh":2},{"translation":[0,0.00625,0],"name":"LowerDrawer","children":[3]},{"children":[0,2,4]}],"bufferViews":[{"buffer":0,"byteOffset":0,"byteLength":3360,"target":34962,"byteStride":12},{"buffer":0,"byteOffset":3360,"byteLength":3360,"target":34962,"byteStride":12},{"buffer":0,"byteOffset":6720,"byteLength":2240,"target":34962,"byteStride":8},{"buffer":0,"byteOffset":8960,"byteLength":840,"target":34963},{"buffer":0,"byteOffset":9800,"byteLength":816,"target":34962,"byteStride":12},{"buffer":0,"byteOffset":10616,"byteLength":816,"target":34962,"byteStride":12},{"buffer":0,"byteOffset":11432,"byteLength":544,"target":34962,"byteStride":8},{"buffer":0,"byteOffset":11976,"byteLength":204,"target":34963},{"buffer":0,"byteOffset":12180,"byteLength":816,"target":34962,"byteStride":12},{"buffer":0,"byteOffset":12996,"byteLength":816,"target":34962,"byteStride":12},{"buffer":0,"byteOffset":13812,"byteLength":544,"target":34962,"byteStride":8},{"buffer":0,"byteOffset":14356,"byteLength":204,"target":34963},{"buffer":0,"byteOffset":14560,"byteLength":16},{"buffer":0,"byteOffset":14576,"byteLength":48},{"buffer":0,"byteOffset":14624,"byteLength":16},{"buffer":0,"byteOffset":14640,"byteLength":48},{"buffer":0,"byteOffset":14688,"byteLength":16},{"buffer":0,"byteOffset":14704,"byteLength":48},{"buffer":0,"byteOffset":14752,"byteLength":16},{"buffer":0,"byteOffset":14768,"byteLength":48}],"buffers":[{"byteLength":14816,"uri":"data:application/octet-stream;base64,"}],"accessors":[{"bufferView":0,"componentType":5126,"count":280,"max":[0.5,1,0.5],"min":[-0.53125,0,-0.5],"type":"VEC3"},{"bufferView":1,"componentType":5126,"count":280,"max":[1,1,1],"min":[-1,-1,-1],"type":"VEC3"},{"bufferView":2,"componentType":5126,"count":280,"max":[0.6484375,0.609375],"min":[0,0],"type":"VEC2"},{"bufferView":3,"componentType":5123,"count":420,"max":[279],"min":[0],"type":"SCALAR"},{"bufferView":4,"componentType":5126,"count":68,"max":[0.328125,0.918749988079071,0.41354167461395264],"min":[-0.5381717085838318,0.5333333611488342,-0.41354167461395264],"type":"VEC3"},{"bufferView":5,"componentType":5126,"count":68,"max":[0.9999756217002869,1,0.9999164342880249],"min":[-0.9999086856842041,-1,-0.9999164342880249],"type":"VEC3"},{"bufferView":6,"componentType":5126,"count":68,"max":[0.615234375,0.5339674949645996],"min":[0,0.109375],"type":"VEC2"},{"bufferView":7,"componentType":5123,"count":102,"max":[67],"min":[0],"type":"SCALAR"},{"bufferView":8,"componentType":5126,"count":68,"max":[0.328125,0.45625001192092896,0.41354167461395264],"min":[-0.5381717085838318,0.07083333283662796,-0.41354167461395264],"type":"VEC3"},{"bufferView":9,"componentType":5126,"count":68,"max":[0.9999756217002869,1,0.9999164342880249],"min":[-0.9999086856842041,-1,-0.9999164342880249],"type":"VEC3"},{"bufferView":10,"componentType":5126,"count":68,"max":[0.615234375,0.5560659170150757],"min":[0.0029938644729554653,0.109375],"type":"VEC2"},{"bufferView":11,"componentType":5123,"count":102,"max":[67],"min":[0],"type":"SCALAR"},{"bufferView":12,"componentType":5126,"count":4,"max":[0.7083333134651184],"min":[0],"type":"SCALAR"},{"bufferView":13,"componentType":5126,"count":4,"max":[0,0.0062500000931322575,0.0062500000931322575],"min":[0,0.0062500000931322575,-0.625],"type":"VEC3"},{"bufferView":14,"componentType":5126,"count":4,"max":[0.7083333134651184],"min":[0],"type":"SCALAR"},{"bufferView":15,"componentType":5126,"count":4,"max":[0,0.0062500000931322575,0.0062500000931322575],"min":[0,0.0062500000931322575,-0.625],"type":"VEC3"},{"bufferView":16,"componentType":5126,"count":4,"max":[0.7083333134651184],"min":[0],"type":"SCALAR"},{"bufferView":17,"componentType":5126,"count":4,"max":[0,0.0062500000931322575,0.0062500000931322575],"min":[0,0.0062500000931322575,-0.625],"type":"VEC3"},{"bufferView":18,"componentType":5126,"count":4,"max":[0.7083333134651184],"min":[0],"type":"SCALAR"},{"bufferView":19,"componentType":5126,"count":4,"max":[0,0.0062500000931322575,0.0062500000931322575],"min":[0,0.0062500000931322575,-0.625],"type":"VEC3"}],"materials":[{"pbrMetallicRoughness":{"metallicFactor":0,"roughnessFactor":1,"baseColorTexture":{"index":0}},"alphaMode":"MASK","alphaCutoff":0.05,"doubleSided":true}],"textures":[{"sampler":0,"source":0,"name":"texture"}],"samplers":[{"magFilter":9728,"minFilter":9728,"wrapS":33071,"wrapT":33071}],"images":[{"mimeType":"image/png","uri":"data:image/png;base64,"}],"meshes":[{"primitives":[{"mode":4,"attributes":{"POSITION":0,"NORMAL":1,"TEXCOORD_0":2},"indices":3,"material":0}]},{"primitives":[{"mode":4,"attributes":{"POSITION":4,"NORMAL":5,"TEXCOORD_0":6},"indices":7,"material":0}]},{"primitives":[{"mode":4,"attributes":{"POSITION":8,"NORMAL":9,"TEXCOORD_0":10},"indices":11,"material":0}]}],"animations":[{"name":"Upper Drawer Open","samplers":[{"input":12,"output":13,"interpolation":"LINEAR"}],"channels":[{"sampler":0,"target":{"node":2,"path":"translation"}}]},{"name":"Upper Drawer Close","samplers":[{"input":14,"output":15,"interpolation":"LINEAR"}],"channels":[{"sampler":0,"target":{"node":2,"path":"translation"}}]},{"name":"Lower Drawer Open","samplers":[{"input":16,"output":17,"interpolation":"LINEAR"}],"channels":[{"sampler":0,"target":{"node":4,"path":"translation"}}]},{"name":"Lower Drawer Close","samplers":[{"input":18,"output":19,"interpolation":"LINEAR"}],"channels":[{"sampler":0,"target":{"node":4,"path":"translation"}}]}]}