{"asset":{"version":"2.0","generator":"Blockbench 4.11.2 glTF exporter"},"scenes":[{"nodes":[2],"name":"blockbench_export"}],"scene":0,"nodes":[{"rotation":[-0.7071067811865475,0,0,0.7071067811865476],"name":"torus","mesh":0},{"translation":[0,1.2875000000000005,0],"name":"MagnifyingGlass","children":[0]},{"children":[1]}],"bufferViews":[{"buffer":0,"byteOffset":0,"byteLength":3072,"target":34962,"byteStride":12},{"buffer":0,"byteOffset":3072,"byteLength":3072,"target":34962,"byteStride":12},{"buffer":0,"byteOffset":6144,"byteLength":2048,"target":34962,"byteStride":8},{"buffer":0,"byteOffset":8192,"byteLength":768,"target":34963}],"buffers":[{"byteLength":8960,"uri":"data:application/octet-stream;base64,"}],"accessors":[{"bufferView":0,"componentType":5126,"count":256,"max":[0.53125,0.06764951348304749,0.53125],"min":[-0.53125,-0.06764951348304749,-0.53125],"type":"VEC3"},{"bufferView":1,"componentType":5126,"count":256,"max":[0.933948814868927,0.9124869704246521,0.933948814868927],"min":[-0.933948814868927,-0.9124869704246521,-0.933948814868927],"type":"VEC3"},{"bufferView":2,"componentType":5126,"count":256,"max":[0.7116247415542603,0.546875],"min":[0.002350975526496768,0],"type":"VEC2"},{"bufferView":3,"componentType":5123,"count":384,"max":[255],"min":[0],"type":"SCALAR"}],"materials":[{"pbrMetallicRoughness":{"metallicFactor":0,"roughnessFactor":1,"baseColorTexture":{"index":0}},"alphaMode":"MASK","alphaCutoff":0.05,"doubleSided":true}],"textures":[{"sampler":0,"source":0,"name":"MG Texture.png"}],"samplers":[{"magFilter":9728,"minFilter":9728,"wrapS":33071,"wrapT":33071}],"images":[{"mimeType":"image/png","uri":"data:image/png;base64,"}],"meshes":[{"primitives":[{"mode":4,"attributes":{"POSITION":0,"NORMAL":1,"TEXCOORD_0":2},"indices":3,"material":0}]}]}