{"asset":{"version":"2.0","generator":"Blockbench 4.11.2 glTF exporter"},"scenes":[{"nodes":[3],"name":"blockbench_export"}],"scene":0,"nodes":[{"translation":[0,-1.2875000000000005,0],"name":"cylinder","mesh":0},{"rotation":[-0.7071067811865475,0,0,0.7071067811865476],"name":"torus","mesh":1},{"translation":[0,1.2875000000000005,0],"name":"MagnifyingGlass","children":[0,1]},{"children":[2]}],"bufferViews":[{"buffer":0,"byteOffset":0,"byteLength":3888,"target":34962,"byteStride":12},{"buffer":0,"byteOffset":3888,"byteLength":3888,"target":34962,"byteStride":12},{"buffer":0,"byteOffset":7776,"byteLength":2592,"target":34962,"byteStride":8},{"buffer":0,"byteOffset":10368,"byteLength":936,"target":34963},{"buffer":0,"byteOffset":11304,"byteLength":3216,"target":34962,"byteStride":12},{"buffer":0,"byteOffset":14520,"byteLength":3216,"target":34962,"byteStride":12},{"buffer":0,"byteOffset":17736,"byteLength":2144,"target":34962,"byteStride":8},{"buffer":0,"byteOffset":19880,"byteLength":804,"target":34963}],"buffers":[{"byteLength":20684,"uri":"data:application/octet-stream;base64,"}],"accessors":[{"bufferView":0,"componentType":5126,"count":324,"max":[0.07216878235340118,0.8125,0.0625],"min":[-0.07216878235340118,0.03125,-0.0625],"type":"VEC3"},{"bufferView":1,"componentType":5126,"count":324,"max":[0.8587452173233032,1,1],"min":[-0.8587452173233032,-1,-1],"type":"VEC3"},{"bufferView":2,"componentType":5126,"count":324,"max":[0.6048109531402588,0.625],"min":[0,0],"type":"VEC2"},{"bufferView":3,"componentType":5123,"count":468,"max":[323],"min":[0],"type":"SCALAR"},{"bufferView":4,"componentType":5126,"count":268,"max":[0.53125,0.06764951348304749,0.53125],"min":[-0.53125,-0.06764951348304749,-0.53125],"type":"VEC3"},{"bufferView":5,"componentType":5126,"count":268,"max":[0.933948814868927,0.9124869704246521,0.933948814868927],"min":[-0.933948814868927,-1,-0.933948814868927],"type":"VEC3"},{"bufferView":6,"componentType":5126,"count":268,"max":[0.7116247415542603,0.6875],"min":[0.002350975526496768,0],"type":"VEC2"},{"bufferView":7,"componentType":5123,"count":402,"max":[267],"min":[0],"type":"SCALAR"}],"materials":[{"pbrMetallicRoughness":{"metallicFactor":0,"roughnessFactor":1,"baseColorTexture":{"index":0}},"alphaMode":"MASK","alphaCutoff":0.05,"doubleSided":true}],"textures":[{"sampler":0,"source":0,"name":"MG Texture.png"}],"samplers":[{"magFilter":9728,"minFilter":9728,"wrapS":33071,"wrapT":33071}],"images":[{"mimeType":"image/png","uri":"data:image/png;base64,"}],"meshes":[{"primitives":[{"mode":4,"attributes":{"POSITION":0,"NORMAL":1,"TEXCOORD_0":2},"indices":3,"material":0}]},{"primitives":[{"mode":4,"attributes":{"POSITION":4,"NORMAL":5,"TEXCOORD_0":6},"indices":7,"material":0}]}]}