{"asset":{"version":"2.0","generator":"Blockbench 4.11.2 glTF exporter"},"scenes":[{"nodes":[3],"name":"blockbench_export"}],"scene":0,"nodes":[{"translation":[0,0,-0.25],"name":"cuboid","mesh":0},{"translation":[0,0.018750000000000003,-0.25],"name":"cuboid","mesh":1},{"rotation":[0,0,0.7071067811865475,0.7071067811865476],"translation":[0,0.26875,-0.18125000000000002],"name":"circle","mesh":2},{"children":[0,1,2]}],"bufferViews":[{"buffer":0,"byteOffset":0,"byteLength":288,"target":34962,"byteStride":12},{"buffer":0,"byteOffset":288,"byteLength":288,"target":34962,"byteStride":12},{"buffer":0,"byteOffset":576,"byteLength":192,"target":34962,"byteStride":8},{"buffer":0,"byteOffset":768,"byteLength":72,"target":34963},{"buffer":0,"byteOffset":840,"byteLength":3552,"target":34962,"byteStride":12},{"buffer":0,"byteOffset":4392,"byteLength":3552,"target":34962,"byteStride":12},{"buffer":0,"byteOffset":7944,"byteLength":2368,"target":34962,"byteStride":8},{"buffer":0,"byteOffset":10312,"byteLength":888,"target":34963},{"buffer":0,"byteOffset":11200,"byteLength":528,"target":34962,"byteStride":12},{"buffer":0,"byteOffset":11728,"byteLength":528,"target":34962,"byteStride":12},{"buffer":0,"byteOffset":12256,"byteLength":352,"target":34962,"byteStride":8},{"buffer":0,"byteOffset":12608,"byteLength":120,"target":34963}],"buffers":[{"byteLength":12728,"uri":"data:application/octet-stream;base64,"}],"accessors":[{"bufferView":0,"componentType":5126,"count":24,"max":[0.03125,0.25,0.0625],"min":[-0.03125,0,-0.0625],"type":"VEC3"},{"bufferView":1,"componentType":5126,"count":24,"max":[1,1,1],"min":[-1,-1,-1],"type":"VEC3"},{"bufferView":2,"componentType":5126,"count":24,"max":[0.71875,0.8125],"min":[0,0],"type":"VEC2"},{"bufferView":3,"componentType":5123,"count":36,"max":[23],"min":[0],"type":"SCALAR"},{"bufferView":4,"componentType":5126,"count":296,"max":[0.05000000074505806,0.4124999940395355,0.699999988079071],"min":[-0.05000000074505806,-3.469446951953614e-18,-0.35991761088371277],"type":"VEC3"},{"bufferView":5,"componentType":5126,"count":296,"max":[1,1,1],"min":[-1,-1,-1],"type":"VEC3"},{"bufferView":6,"componentType":5126,"count":296,"max":[0.8125,0.8125],"min":[0,0],"type":"VEC2"},{"bufferView":7,"componentType":5123,"count":444,"max":[295],"min":[0],"type":"SCALAR"},{"bufferView":8,"componentType":5126,"count":44,"max":[0.012500000186264515,0.0062500000931322575,0.07500000298023224],"min":[-0.08525635302066803,-0.0062500000931322575,-0.012500000186264515],"type":"VEC3"},{"bufferView":9,"componentType":5126,"count":44,"max":[1,1,1],"min":[-0.8730236887931824,-1,-1],"type":"VEC3"},{"bufferView":10,"componentType":5126,"count":44,"max":[0.8090953230857849,0.78125],"min":[0.3505609333515167,0.0625],"type":"VEC2"},{"bufferView":11,"componentType":5123,"count":60,"max":[43],"min":[0],"type":"SCALAR"}],"materials":[{"pbrMetallicRoughness":{"metallicFactor":0,"roughnessFactor":1,"baseColorTexture":{"index":0}},"alphaMode":"MASK","alphaCutoff":0.05,"doubleSided":true}],"textures":[{"sampler":0,"source":0,"name":"Pistol"}],"samplers":[{"magFilter":9728,"minFilter":9728,"wrapS":33071,"wrapT":33071}],"images":[{"mimeType":"image/png","uri":"data:image/png;base64,"}],"meshes":[{"primitives":[{"mode":4,"attributes":{"POSITION":0,"NORMAL":1,"TEXCOORD_0":2},"indices":3,"material":0}]},{"primitives":[{"mode":4,"attributes":{"POSITION":4,"NORMAL":5,"TEXCOORD_0":6},"indices":7,"material":0}]},{"primitives":[{"mode":4,"attributes":{"POSITION":8,"NORMAL":9,"TEXCOORD_0":10},"indices":11,"material":0}]}]}