{"asset":{"version":"2.0","generator":"Blockbench 4.11.2 glTF exporter"},"scenes":[{"nodes":[3],"name":"blockbench_export"}],"scene":0,"nodes":[{"translation":[0,1.625,0],"name":"sphere","mesh":0},{"translation":[0,1.75,0],"name":"cylinder","mesh":1},{"name":"cylinder","mesh":2},{"children":[0,1,2]}],"bufferViews":[{"buffer":0,"byteOffset":0,"byteLength":2160,"target":34962,"byteStride":12},{"buffer":0,"byteOffset":2160,"byteLength":2160,"target":34962,"byteStride":12},{"buffer":0,"byteOffset":4320,"byteLength":1440,"target":34962,"byteStride":8},{"buffer":0,"byteOffset":5760,"byteLength":504,"target":34963},{"buffer":0,"byteOffset":6264,"byteLength":1440,"target":34962,"byteStride":12},{"buffer":0,"byteOffset":7704,"byteLength":1440,"target":34962,"byteStride":12},{"buffer":0,"byteOffset":9144,"byteLength":960,"target":34962,"byteStride":8},{"buffer":0,"byteOffset":10104,"byteLength":288,"target":34963},{"buffer":0,"byteOffset":10392,"byteLength":3936,"target":34962,"byteStride":12},{"buffer":0,"byteOffset":14328,"byteLength":3936,"target":34962,"byteStride":12},{"buffer":0,"byteOffset":18264,"byteLength":2624,"target":34962,"byteStride":8},{"buffer":0,"byteOffset":20888,"byteLength":912,"target":34963}],"buffers":[{"byteLength":21800,"uri":"data:application/octet-stream;base64,"}],"accessors":[{"bufferView":0,"componentType":5126,"count":180,"max":[0.45625001192092896,0.21875,0.4375],"min":[-0.45625001192092896,-0.3788861036300659,-0.45625001192092896],"type":"VEC3"},{"bufferView":1,"componentType":5126,"count":180,"max":[0.9417861104011536,0.3334255814552307,0.9659258127212524],"min":[-0.9417861104011536,-0.9998422265052795,-0.9683206081390381],"type":"VEC3"},{"bufferView":2,"componentType":5126,"count":180,"max":[0.49623537063598633,0.546875],"min":[0.0031959840562194586,0.25958776473999023],"type":"VEC2"},{"bufferView":3,"componentType":5123,"count":252,"max":[179],"min":[0],"type":"SCALAR"},{"bufferView":4,"componentType":5126,"count":120,"max":[0.48750001192092896,0.34375,0.6000000238418579],"min":[-0.48750001192092896,-0.800000011920929,-0.5],"type":"VEC3"},{"bufferView":5,"componentType":5126,"count":120,"max":[0.9876879453659058,0.9953500032424927,0.9883716702461243],"min":[-0.9876879453659058,-0.8944271802902222,-0.8952072262763977],"type":"VEC3"},{"bufferView":6,"componentType":5126,"count":120,"max":[0.5631603002548218,0.5625],"min":[0.003049955004826188,0],"type":"VEC2"},{"bufferView":7,"componentType":5123,"count":144,"max":[119],"min":[0],"type":"SCALAR"},{"bufferView":8,"componentType":5126,"count":328,"max":[0.6623765230178833,1.25,0.737500011920929],"min":[-0.6623765230178833,-0.012500000186264515,-0.4437499940395355],"type":"VEC3"},{"bufferView":9,"componentType":5126,"count":328,"max":[0.9877095222473145,1,0.9882102608680725],"min":[-0.9877095222473145,-0.9886188507080078,-0.987870454788208],"type":"VEC3"},{"bufferView":10,"componentType":5126,"count":328,"max":[0.5625,0.578125],"min":[0,0],"type":"VEC2"},{"bufferView":11,"componentType":5123,"count":456,"max":[327],"min":[0],"type":"SCALAR"}],"materials":[{"pbrMetallicRoughness":{"metallicFactor":0,"roughnessFactor":1,"baseColorTexture":{"index":0}},"alphaMode":"MASK","alphaCutoff":0.05,"doubleSided":true}],"textures":[{"sampler":0,"source":0,"name":"texture"}],"samplers":[{"magFilter":9728,"minFilter":9728,"wrapS":33071,"wrapT":33071}],"images":[{"mimeType":"image/png","uri":"data:image/png;base64,"}],"meshes":[{"primitives":[{"mode":4,"attributes":{"POSITION":0,"NORMAL":1,"TEXCOORD_0":2},"indices":3,"material":0}]},{"primitives":[{"mode":4,"attributes":{"POSITION":4,"NORMAL":5,"TEXCOORD_0":6},"indices":7,"material":0}]},{"primitives":[{"mode":4,"attributes":{"POSITION":8,"NORMAL":9,"TEXCOORD_0":10},"indices":11,"material":0}]}]}